# xmcd
#
# Track frame offsets:
# 150
# 28052
# 53020
# 69170
# 90577
# 122925
# 141097
# 170190
# 189315
# 211637
# 239930
# 259075
# 284355
# 313042
#
# Disc length: 4428 seconds
#
#
# Revision: 8
# Processed by: cddbd v1.5.2PL0 Copyright (c) Steve Scherf et al.
# Submitted via: FreeRIP 2.70 
#
DISCID=cf114a0e
DTITLE=John Williams - Greatest Hits 1969-1999 [CD2]
DYEAR=1999
DGENRE=Soundtrack
TTITLE0=Saving Private Ryan -- Hymn to the Fallen
TTITLE1=Jurassic Park -- Theme
TTITLE2=Schindler's List -- Theme
TTITLE3=Hook -- Flight to Neverland
TTITLE4=Seven Years in Tibet -- Seven Years in Tibet
TTITLE5=JFK -- Prologue
TTITLE6=Stepmom -- The Days Between
TTITLE7=1941 -- March
TTITLE8=Home Alone -- Somewhere In My Memory
TTITLE9=Summon the Heroes
TTITLE10=Rosewood -- Look Down, Lord
TTITLE11=Far and Away -- Theme
TTITLE12=Born on the Fourth of July -- Theme
TTITLE13=Star Wars Episode 1: The Phantom Menace -- Duel of the Fates
EXTD=YEAR: 1969-1999
EXTT0=
EXTT1=
EXTT2=
EXTT3=
EXTT4=
EXTT5=
EXTT6=
EXTT7=
EXTT8=
EXTT9=
EXTT10=
EXTT11=
EXTT12=
EXTT13=
PLAYORDER=
